<svg width="132" height="26" viewBox="0 0 132 26" fill="none" xmlns="http://www.w3.org/2000/svg"><path d="M88.1777 24.6841C82.8041 24.6707 78.6134 20.1005 79.1839 14.8337C79.5911 11.0813 80.8942 7.67509 83.3519 4.73622C83.674 4.35119 84.0483 4.004 84.4328 3.67684C86.7737 1.68272 89.5262 1.66715 91.8774 3.64123C93.8746 5.31709 95.0655 7.51596 95.9853 9.87619C96.6351 11.5443 97.0298 13.2735 97.2045 15.0562C97.6525 19.6543 94.0946 24.0153 89.4174 24.565C89.0045 24.6128 88.5906 24.644 88.1777 24.6841ZM80.842 15.1753C80.9033 15.7172 80.9282 16.2002 81.0156 16.672C81.6892 20.3075 85.1042 22.7756 88.9796 22.4407C92.5204 22.1347 95.4624 19.0344 95.4454 15.4924C95.4284 12.1162 94.2557 9.09946 92.103 6.47551C91.638 5.90798 91.0335 5.41502 90.4075 5.01886C88.6439 3.90608 86.6205 4.15534 84.9783 5.72994C82.2699 8.32607 81.1914 11.6266 80.842 15.1753Z" fill="#FF6B00"></path><path d="M93.6404 15.6497C93.6222 18.623 91.2144 20.9421 88.1862 20.9643C85.2159 20.9866 82.6765 18.5218 82.7344 15.5963C82.7945 12.4849 85.1467 10.2382 88.3881 10.2649C91.3131 10.2894 93.6585 12.6941 93.6404 15.6497ZM83.5101 15.3603C83.0179 16.4676 83.6644 18.7299 85.5357 19.876C86.4544 20.4391 88.4618 20.8186 89.1888 20.1765C86.1629 19.8905 84.2575 18.3159 83.5101 15.3603Z" fill="#FFAB07"></path><path d="M104.818 24.6841C99.4447 24.6707 95.254 20.1005 95.8245 14.8337C96.2317 11.0813 97.5348 7.67509 99.9925 4.73622C100.315 4.35119 100.689 4.004 101.073 3.67684C103.414 1.68272 106.167 1.66715 108.518 3.64123C110.515 5.31709 111.706 7.51596 112.626 9.87619C113.276 11.5443 113.67 13.2735 113.845 15.0562C114.293 19.6543 110.735 24.0153 106.058 24.565C105.645 24.6128 105.231 24.644 104.818 24.6841ZM97.4827 15.1753C97.5439 15.7172 97.5689 16.2002 97.6562 16.672C98.3299 20.3075 101.745 22.7756 105.62 22.4407C109.161 22.1347 112.103 19.0344 112.086 15.4924C112.069 12.1162 110.896 9.09946 108.744 6.4755C108.279 5.90798 107.674 5.41502 107.048 5.01886C105.285 3.90608 103.261 4.15534 101.619 5.72994C98.9106 8.32607 97.832 11.6266 97.4827 15.1753Z" fill="#FF6B00"></path><path d="M99.3743 15.6497C99.3924 18.623 101.8 20.9421 104.828 20.9643C107.799 20.9866 110.338 18.5218 110.28 15.5963C110.22 12.4849 107.868 10.2382 104.627 10.2649C101.702 10.2894 99.3561 12.6941 99.3743 15.6497ZM109.505 15.3603C109.997 16.4676 109.35 18.7299 107.479 19.876C106.56 20.4391 104.553 20.8186 103.826 20.1765C106.852 19.8905 108.757 18.3159 109.505 15.3603Z" fill="#FFAB07"></path><path d="M6.29607 24.6839C6.17078 24.6839 6.06637 24.6421 5.98284 24.5586C5.89931 24.4751 5.85754 24.3707 5.85754 24.2454V5.32583H0.438532C0.313237 5.32583 0.208825 5.28406 0.125295 5.20053C0.041765 5.117 0 5.01259 0 4.8873V3.35243C0 3.22714 0.041765 3.12273 0.125295 3.0392C0.208825 2.95566 0.313237 2.9139 0.438532 2.9139H13.8451C13.9704 2.9139 14.0748 2.95566 14.1583 3.0392C14.2419 3.12273 14.2836 3.22714 14.2836 3.35243V4.8873C14.2836 5.01259 14.2419 5.117 14.1583 5.20053C14.0748 5.28406 13.9704 5.32583 13.8451 5.32583H8.42609V24.2454C8.42609 24.3707 8.38432 24.4751 8.30079 24.5586C8.21726 24.6421 8.11285 24.6839 7.98756 24.6839H6.29607Z" fill="#FF6B00"></path><path d="M21.5877 24.6839C21.2745 24.6839 21.003 24.5795 20.7733 24.3707C20.5644 24.141 20.46 23.8695 20.46 23.5562V9.27262H17.2024C17.0771 9.27262 16.9727 9.23086 16.8891 9.14733C16.8056 9.0638 16.7638 8.95938 16.7638 8.83409V7.3932C16.7638 7.2679 16.8056 7.16349 16.8891 7.07996C16.9727 6.99643 17.0771 6.95466 17.2024 6.95466H21.7756C22.0889 6.95466 22.3499 7.06952 22.5587 7.29923C22.7884 7.50805 22.9033 7.76908 22.9033 8.08232V22.3659H26.1296C26.2549 22.3659 26.3593 22.4077 26.4429 22.4912C26.5264 22.5748 26.5682 22.6792 26.5682 22.8045V24.2454C26.5682 24.3707 26.5264 24.4751 26.4429 24.5586C26.3593 24.6421 26.2549 24.6839 26.1296 24.6839H21.5877ZM20.9299 4.51141C20.8046 4.51141 20.7002 4.46965 20.6167 4.38612C20.5331 4.30259 20.4914 4.19817 20.4914 4.07288V1.34771C20.4914 1.22242 20.5331 1.11801 20.6167 1.03447C20.7002 0.950945 20.8046 0.90918 20.9299 0.90918H22.4334C22.5587 0.90918 22.6631 0.950945 22.7467 1.03447C22.8302 1.11801 22.872 1.22242 22.872 1.34771V4.07288C22.872 4.19817 22.8302 4.30259 22.7467 4.38612C22.6631 4.46965 22.5587 4.51141 22.4334 4.51141H20.9299Z" fill="#FF6B00"></path><path d="M30.9089 24.6526C30.7837 24.6526 30.6792 24.6108 30.5957 24.5273C30.5122 24.4438 30.4704 24.3393 30.4704 24.214V7.3932C30.4704 7.2679 30.5122 7.16349 30.5957 7.07996C30.6792 6.99643 30.7837 6.95466 30.9089 6.95466H32.4751C32.6004 6.95466 32.7048 6.99643 32.7884 7.07996C32.8719 7.16349 32.9137 7.2679 32.9137 7.3932V9.116C33.4566 8.25982 34.1666 7.61246 35.0437 7.17393C35.9207 6.7354 36.8918 6.51613 37.9568 6.51613C39.1471 6.51613 40.1912 6.76672 41.0892 7.2679C41.9871 7.7482 42.6762 8.43732 43.1565 9.33527C43.6577 10.2123 43.9083 11.246 43.9083 12.4363V24.214C43.9083 24.3393 43.8665 24.4438 43.783 24.5273C43.6995 24.6108 43.5951 24.6526 43.4698 24.6526H41.9036C41.7783 24.6526 41.6739 24.6108 41.5903 24.5273C41.5068 24.4438 41.465 24.3393 41.465 24.214V12.9062C41.465 11.5488 41.0996 10.5256 40.3687 9.83645C39.6587 9.14733 38.7294 8.80276 37.5809 8.80276C36.2235 8.80276 35.1063 9.25174 34.2293 10.1497C33.3522 11.0476 32.9137 12.3215 32.9137 13.9712V24.214C32.9137 24.3393 32.8719 24.4438 32.7884 24.5273C32.7048 24.6108 32.6004 24.6526 32.4751 24.6526H30.9089Z" fill="#FF6B00"></path><path d="M53.2976 25.0911C52.2326 25.0911 51.2824 24.8927 50.4471 24.496C49.6327 24.0783 48.9854 23.4936 48.5051 22.7418C48.0456 21.9901 47.8159 21.1234 47.8159 20.142C47.8159 18.7637 48.2858 17.6256 49.2255 16.7277C50.1652 15.8297 51.4599 15.2659 53.1096 15.0362C53.6108 14.9527 54.0807 14.89 54.5192 14.8482C54.9786 14.7856 55.4276 14.723 55.8661 14.6603C56.3047 14.5977 56.7432 14.535 57.1817 14.4724C57.7873 14.368 58.2259 14.1591 58.4973 13.8459C58.7688 13.5326 58.9045 13.0732 58.9045 12.4676V12.2171C58.9045 11.1938 58.5078 10.3794 57.7142 9.7738C56.9207 9.16821 55.9497 8.86541 54.8011 8.86541C53.8614 8.86541 53.047 9.05336 52.3579 9.42924C51.6896 9.80513 51.1676 10.3063 50.7917 10.9328C50.6246 11.2043 50.4158 11.34 50.1652 11.34C50.0399 11.34 49.9042 11.2878 49.758 11.1834L48.9123 10.6195C48.7243 10.4525 48.6304 10.275 48.6304 10.087C48.6304 10.0035 48.6617 9.8991 48.7243 9.7738C49.309 8.79232 50.1235 8.00923 51.1676 7.42452C52.2326 6.83981 53.4647 6.54745 54.8638 6.54745C56.1376 6.54745 57.2548 6.7876 58.2154 7.2679C59.176 7.72732 59.9278 8.38511 60.4707 9.2413C61.0137 10.0766 61.2851 11.0685 61.2851 12.2171V24.2454C61.2851 24.3707 61.2434 24.4751 61.1599 24.5586C61.0763 24.6421 60.9719 24.6839 60.8466 24.6839H59.531C59.2387 24.6839 59.0925 24.5377 59.0925 24.2454V22.084C58.4451 23.0237 57.6203 23.7651 56.6179 24.308C55.6156 24.8301 54.5088 25.0911 53.2976 25.0911ZM53.5482 22.8985C54.6341 22.8985 55.5842 22.6165 56.3986 22.0527C57.2131 21.4889 57.85 20.7998 58.3094 19.9853C58.7688 19.15 58.9985 18.3565 58.9985 17.6047V16.3205C58.372 16.3831 57.7873 16.4562 57.2444 16.5397C56.7014 16.6024 56.1167 16.6859 55.4903 16.7903C54.8847 16.8739 54.1538 16.9783 53.2976 17.1036C51.2093 17.4168 50.1652 18.3983 50.1652 20.048C50.1652 20.9042 50.4785 21.5933 51.1049 22.1154C51.7314 22.6374 52.5458 22.8985 53.5482 22.8985Z" fill="#FF6B00"></path><path d="M67.0353 24.6839C66.91 24.6839 66.8055 24.6421 66.722 24.5586C66.6385 24.4751 66.5967 24.3707 66.5967 24.2454V4.04155C66.5967 3.72832 66.7011 3.46729 66.91 3.25846C67.1397 3.02875 67.4111 2.9139 67.7244 2.9139H78.0299C78.1552 2.9139 78.2596 2.95566 78.3431 3.0392C78.4267 3.12273 78.4684 3.22714 78.4684 3.35243V4.8873C78.4684 5.01259 78.4267 5.117 78.3431 5.20053C78.2596 5.28406 78.1552 5.32583 78.0299 5.32583H69.1653V12.6556H75.9312C76.0565 12.6556 76.1609 12.6974 76.2444 12.7809C76.328 12.8644 76.3697 12.9688 76.3697 13.0941V14.5663C76.3697 14.6916 76.328 14.796 76.2444 14.8796C76.1609 14.9631 76.0565 15.0049 75.9312 15.0049H69.1653V24.2454C69.1653 24.3707 69.1235 24.4751 69.04 24.5586C68.9565 24.6421 68.852 24.6839 68.7267 24.6839H67.0353Z" fill="#FF6B00"></path><path d="M117.432 24.6839C117.119 24.6839 116.848 24.5795 116.618 24.3707C116.409 24.141 116.305 23.8695 116.305 23.5562V4.04155C116.305 3.72832 116.409 3.46729 116.618 3.25846C116.848 3.02875 117.119 2.9139 117.432 2.9139H123.008C124.512 2.9139 125.879 3.28978 127.112 4.04155C128.344 4.77244 129.325 5.76436 130.056 7.01731C130.808 8.24938 131.184 9.63807 131.184 11.1834V16.4144C131.184 17.9389 130.808 19.3275 130.056 20.5805C129.325 21.8334 128.344 22.8358 127.112 23.5876C125.879 24.3185 124.512 24.6839 123.008 24.6839H117.432ZM118.873 22.272H123.008C124.052 22.272 124.992 22.0214 125.827 21.5202C126.683 21.019 127.362 20.3403 127.863 19.4842C128.364 18.628 128.615 17.6778 128.615 16.6337V10.9328C128.615 9.88865 128.364 8.94894 127.863 8.11364C127.362 7.25746 126.683 6.57878 125.827 6.0776C124.992 5.57642 124.052 5.32583 123.008 5.32583H118.873V22.272Z" fill="#FF6B00"></path></svg>