<svg width="44" height="43" viewBox="0 0 44 43" fill="none" xmlns="http://www.w3.org/2000/svg"><path d="M13.6699 32.5132C8.29631 32.4998 4.10561 27.9296 4.67609 22.6628C5.08325 18.9104 6.38639 15.5042 8.8441 12.5653C9.1662 12.1803 9.54047 11.8331 9.92495 11.5059C12.2658 9.51183 15.0184 9.49625 17.3695 11.4703C19.3668 13.1462 20.5576 15.3451 21.4774 17.7053C22.1273 19.3734 22.522 21.1026 22.6967 22.8853C23.1447 27.4834 19.5868 31.8444 14.9096 32.3941C14.4967 32.4419 14.0828 32.4731 13.6699 32.5132ZM6.33422 23.0044C6.39546 23.5463 6.42041 24.0293 6.50774 24.5011C7.18143 28.1366 10.5964 30.6047 14.4718 30.2698C18.0126 29.9638 20.9546 26.8635 20.9376 23.3215C20.9206 19.9453 19.7479 16.9286 17.5952 14.3046C17.1302 13.7371 16.5257 13.2441 15.8997 12.848C14.1361 11.7352 12.1127 11.9844 10.4705 13.559C7.76212 16.1552 6.68354 19.4557 6.33422 23.0044Z" fill="#FF6B00"></path><path d="M19.1326 23.4786C19.1144 26.4519 16.7066 28.771 13.6784 28.7932C10.7081 28.8155 8.16871 26.3507 8.22656 23.4251C8.28667 20.3138 10.6389 18.0671 13.8803 18.0938C16.8053 18.1183 19.1507 20.523 19.1326 23.4786ZM9.00232 23.1892C8.51009 24.2965 9.15656 26.5588 11.0279 27.7049C11.9466 28.268 13.954 28.6475 14.681 28.0054C11.6551 27.7194 9.74972 26.1448 9.00232 23.1892Z" fill="#FFAB07"></path><path d="M30.311 32.5132C24.9374 32.4998 20.7467 27.9296 21.3172 22.6628C21.7244 18.9104 23.0275 15.5042 25.4852 12.5653C25.8073 12.1803 26.1816 11.8331 26.5661 11.5059C28.907 9.51183 31.6596 9.49625 34.0107 11.4703C36.0079 13.1462 37.1988 15.3451 38.1186 17.7053C38.7684 19.3734 39.1631 21.1026 39.3378 22.8853C39.7858 27.4834 36.2279 31.8444 31.5507 32.3941C31.1378 32.4419 30.7239 32.4731 30.311 32.5132ZM22.9753 23.0044C23.0366 23.5463 23.0615 24.0293 23.1489 24.5011C23.8225 28.1366 27.2375 30.6047 31.1129 30.2698C34.6537 29.9638 37.5957 26.8635 37.5787 23.3215C37.5617 19.9453 36.389 16.9286 34.2364 14.3046C33.7713 13.7371 33.1668 13.2441 32.5408 12.848C30.7772 11.7352 28.7538 11.9844 27.1116 13.559C24.4032 16.1552 23.3247 19.4557 22.9753 23.0044Z" fill="#FF6B00"></path><path d="M24.8669 23.4786C24.8851 26.4519 27.2929 28.771 30.3211 28.7932C33.2914 28.8155 35.8308 26.3507 35.773 23.4251C35.7128 20.3138 33.3606 18.0671 30.1192 18.0938C27.1942 18.1183 24.8488 20.523 24.8669 23.4786ZM34.9972 23.1892C35.4894 24.2965 34.843 26.5588 32.9716 27.7049C32.0529 28.268 30.0455 28.6475 29.3185 28.0054C32.3444 27.7194 34.2498 26.1448 34.9972 23.1892Z" fill="#FFAB07"></path></svg>